<svg xmlns="http://www.w3.org/2000/svg" version="1.1" xmlns:xlink="http://www.w3.org/1999/xlink" xmlns:svgjs="http://svgjs.com/svgjs" width="1440" height="560" preserveAspectRatio="none" viewBox="0 0 1440 560"><g mask="url(&quot;#SvgjsMask1023&quot;)" fill="none"><path d="M-47.11 401.72L-47.11 401.72" stroke="#132e65" stroke-width="1.5"></path><path d="M-47.11 401.72L-84.7 513.07" stroke="#132e65" stroke-width="1.5"></path><path d="M-47.11 401.72L68.64 373.61" stroke="#132e65" stroke-width="1.5"></path><path d="M-47.11 401.72L85.51 503.22" stroke="#132e65" stroke-width="1.5"></path><path d="M-47.11 401.72L194.55 409.96" stroke="#132e65" stroke-width="1.5"></path><path d="M-47.11 401.72L-98.94 675.52" stroke="#132e65" stroke-width="1.5"></path><path d="M-47.11 401.72L204.6 547.35" stroke="#132e65" stroke-width="1.5"></path><path d="M-84.7 513.07L-84.7 513.07" stroke="#132e65" stroke-width="1.5"></path><path d="M-84.7 513.07L-98.94 675.52" stroke="#132e65" stroke-width="1.5"></path><path d="M-84.7 513.07L85.51 503.22" stroke="#132e65" stroke-width="1.5"></path><path d="M-98.94 675.52L-98.94 675.52" stroke="#132e65" stroke-width="1.5"></path><path d="M-98.94 675.52L97.22 699.1" stroke="#132e65" stroke-width="1.5"></path><path d="M68.64 373.61L68.64 373.61" stroke="#132e65" stroke-width="1.5"></path><path d="M85.51 503.22L85.51 503.22" stroke="#132e65" stroke-width="1.5"></path><path d="M85.51 503.22L204.6 547.35" stroke="#132e65" stroke-width="1.5"></path><path d="M85.51 503.22L68.64 373.61" stroke="#132e65" stroke-width="1.5"></path><path d="M85.51 503.22L194.55 409.96" stroke="#132e65" stroke-width="1.5"></path><path d="M97.22 699.1L97.22 699.1" stroke="#132e65" stroke-width="1.5"></path><path d="M97.22 699.1L204.6 547.35" stroke="#132e65" stroke-width="1.5"></path><path d="M97.22 699.1L85.51 503.22" stroke="#132e65" stroke-width="1.5"></path><path d="M97.22 699.1L-84.7 513.07" stroke="#132e65" stroke-width="1.5"></path><path d="M194.55 409.96L194.55 409.96" stroke="#132e65" stroke-width="1.5"></path><path d="M194.55 409.96L68.64 373.61" stroke="#132e65" stroke-width="1.5"></path><path d="M194.55 409.96L204.6 547.35" stroke="#132e65" stroke-width="1.5"></path><path d="M204.6 547.35L204.6 547.35" stroke="#132e65" stroke-width="1.5"></path><path d="M204.6 547.35L373.44 517.29" stroke="#132e65" stroke-width="1.5"></path><path d="M387.12 346.45L387.12 346.45" stroke="#132e65" stroke-width="1.5"></path><path d="M387.12 346.45L489.71 355.36" stroke="#132e65" stroke-width="1.5"></path><path d="M387.12 346.45L373.44 517.29" stroke="#132e65" stroke-width="1.5"></path><path d="M373.44 517.29L373.44 517.29" stroke="#132e65" stroke-width="1.5"></path><path d="M373.44 517.29L370.63 658.82" stroke="#132e65" stroke-width="1.5"></path><path d="M370.63 658.82L370.63 658.82" stroke="#132e65" stroke-width="1.5"></path><path d="M370.63 658.82L498.28 642.28" stroke="#132e65" stroke-width="1.5"></path><path d="M370.63 658.82L204.6 547.35" stroke="#132e65" stroke-width="1.5"></path><path d="M489.71 355.36L489.71 355.36" stroke="#132e65" stroke-width="1.5"></path><path d="M489.71 355.36L541.32 541.02" stroke="#132e65" stroke-width="1.5"></path><path d="M489.71 355.36L373.44 517.29" stroke="#132e65" stroke-width="1.5"></path><path d="M489.71 355.36L688.82 388.53" stroke="#132e65" stroke-width="1.5"></path><path d="M489.71 355.36L701.21 244.84" stroke="#132e65" stroke-width="1.5"></path><path d="M541.32 541.02L541.32 541.02" stroke="#132e65" stroke-width="1.5"></path><path d="M541.32 541.02L498.28 642.28" stroke="#132e65" stroke-width="1.5"></path><path d="M541.32 541.02L691.55 513.51" stroke="#132e65" stroke-width="1.5"></path><path d="M541.32 541.02L373.44 517.29" stroke="#132e65" stroke-width="1.5"></path><path d="M498.28 642.28L498.28 642.28" stroke="#132e65" stroke-width="1.5"></path><path d="M498.28 642.28L373.44 517.29" stroke="#132e65" stroke-width="1.5"></path><path d="M701.21 244.84L701.21 244.84" stroke="#132e65" stroke-width="1.5"></path><path d="M701.21 244.84L688.82 388.53" stroke="#132e65" stroke-width="1.5"></path><path d="M701.21 244.84L834.09 374.87" stroke="#132e65" stroke-width="1.5"></path><path d="M701.21 244.84L938.18 206.18" stroke="#132e65" stroke-width="1.5"></path><path d="M688.82 388.53L688.82 388.53" stroke="#132e65" stroke-width="1.5"></path><path d="M688.82 388.53L691.55 513.51" stroke="#132e65" stroke-width="1.5"></path><path d="M688.82 388.53L834.09 374.87" stroke="#132e65" stroke-width="1.5"></path><path d="M688.82 388.53L852.43 503.92" stroke="#132e65" stroke-width="1.5"></path><path d="M691.55 513.51L691.55 513.51" stroke="#132e65" stroke-width="1.5"></path><path d="M691.55 513.51L852.43 503.92" stroke="#132e65" stroke-width="1.5"></path><path d="M691.55 513.51L804.03 669.49" stroke="#132e65" stroke-width="1.5"></path><path d="M691.55 513.51L834.09 374.87" stroke="#132e65" stroke-width="1.5"></path><path d="M834.09 374.87L834.09 374.87" stroke="#132e65" stroke-width="1.5"></path><path d="M834.09 374.87L953.99 367.16" stroke="#132e65" stroke-width="1.5"></path><path d="M834.09 374.87L852.43 503.92" stroke="#132e65" stroke-width="1.5"></path><path d="M834.09 374.87L938.18 206.18" stroke="#132e65" stroke-width="1.5"></path><path d="M852.43 503.92L852.43 503.92" stroke="#132e65" stroke-width="1.5"></path><path d="M852.43 503.92L1004.31 539.9" stroke="#132e65" stroke-width="1.5"></path><path d="M804.03 669.49L804.03 669.49" stroke="#132e65" stroke-width="1.5"></path><path d="M804.03 669.49L943.71 661.03" stroke="#132e65" stroke-width="1.5"></path><path d="M804.03 669.49L852.43 503.92" stroke="#132e65" stroke-width="1.5"></path><path d="M804.03 669.49L1004.31 539.9" stroke="#132e65" stroke-width="1.5"></path><path d="M804.03 669.49L541.32 541.02" stroke="#132e65" stroke-width="1.5"></path><path d="M804.03 669.49L834.09 374.87" stroke="#132e65" stroke-width="1.5"></path><path d="M958.5 -87.22L958.5 -87.22" stroke="#132e65" stroke-width="1.5"></path><path d="M958.5 -87.22L998.02 99.03" stroke="#132e65" stroke-width="1.5"></path><path d="M958.5 -87.22L1161.27 -96.09" stroke="#132e65" stroke-width="1.5"></path><path d="M958.5 -87.22L1249.52 -64.53" stroke="#132e65" stroke-width="1.5"></path><path d="M958.5 -87.22L938.18 206.18" stroke="#132e65" stroke-width="1.5"></path><path d="M998.02 99.03L998.02 99.03" stroke="#132e65" stroke-width="1.5"></path><path d="M998.02 99.03L938.18 206.18" stroke="#132e65" stroke-width="1.5"></path><path d="M998.02 99.03L1142.2 221.46" stroke="#132e65" stroke-width="1.5"></path><path d="M998.02 99.03L1161.27 -96.09" stroke="#132e65" stroke-width="1.5"></path><path d="M998.02 99.03L953.99 367.16" stroke="#132e65" stroke-width="1.5"></path><path d="M998.02 99.03L1249.52 -64.53" stroke="#132e65" stroke-width="1.5"></path><path d="M938.18 206.18L938.18 206.18" stroke="#132e65" stroke-width="1.5"></path><path d="M938.18 206.18L953.99 367.16" stroke="#132e65" stroke-width="1.5"></path><path d="M953.99 367.16L953.99 367.16" stroke="#132e65" stroke-width="1.5"></path><path d="M953.99 367.16L852.43 503.92" stroke="#132e65" stroke-width="1.5"></path><path d="M953.99 367.16L1004.31 539.9" stroke="#132e65" stroke-width="1.5"></path><path d="M1004.31 539.9L1004.31 539.9" stroke="#132e65" stroke-width="1.5"></path><path d="M1004.31 539.9L1130.05 543.35" stroke="#132e65" stroke-width="1.5"></path><path d="M1004.31 539.9L943.71 661.03" stroke="#132e65" stroke-width="1.5"></path><path d="M943.71 661.03L943.71 661.03" stroke="#132e65" stroke-width="1.5"></path><path d="M943.71 661.03L1120.06 684.31" stroke="#132e65" stroke-width="1.5"></path><path d="M943.71 661.03L852.43 503.92" stroke="#132e65" stroke-width="1.5"></path><path d="M943.71 661.03L1130.05 543.35" stroke="#132e65" stroke-width="1.5"></path><path d="M943.71 661.03L691.55 513.51" stroke="#132e65" stroke-width="1.5"></path><path d="M1161.27 -96.09L1161.27 -96.09" stroke="#132e65" stroke-width="1.5"></path><path d="M1161.27 -96.09L1249.52 -64.53" stroke="#132e65" stroke-width="1.5"></path><path d="M1142.2 221.46L1142.2 221.46" stroke="#132e65" stroke-width="1.5"></path><path d="M1142.2 221.46L1298.37 232.9" stroke="#132e65" stroke-width="1.5"></path><path d="M1142.2 221.46L1148.2 400.53" stroke="#132e65" stroke-width="1.5"></path><path d="M1142.2 221.46L1269.34 359.95" stroke="#132e65" stroke-width="1.5"></path><path d="M1142.2 221.46L938.18 206.18" stroke="#132e65" stroke-width="1.5"></path><path d="M1148.2 400.53L1148.2 400.53" stroke="#132e65" stroke-width="1.5"></path><path d="M1148.2 400.53L1269.34 359.95" stroke="#132e65" stroke-width="1.5"></path><path d="M1148.2 400.53L1130.05 543.35" stroke="#132e65" stroke-width="1.5"></path><path d="M1148.2 400.53L1281.28 509.61" stroke="#132e65" stroke-width="1.5"></path><path d="M1148.2 400.53L953.99 367.16" stroke="#132e65" stroke-width="1.5"></path><path d="M1130.05 543.35L1130.05 543.35" stroke="#132e65" stroke-width="1.5"></path><path d="M1120.06 684.31L1120.06 684.31" stroke="#132e65" stroke-width="1.5"></path><path d="M1120.06 684.31L1130.05 543.35" stroke="#132e65" stroke-width="1.5"></path><path d="M1120.06 684.31L1276.03 681.16" stroke="#132e65" stroke-width="1.5"></path><path d="M1120.06 684.31L1004.31 539.9" stroke="#132e65" stroke-width="1.5"></path><path d="M1249.52 -64.53L1249.52 -64.53" stroke="#132e65" stroke-width="1.5"></path><path d="M1298.37 232.9L1298.37 232.9" stroke="#132e65" stroke-width="1.5"></path><path d="M1298.37 232.9L1410.63 221.05" stroke="#132e65" stroke-width="1.5"></path><path d="M1298.37 232.9L1269.34 359.95" stroke="#132e65" stroke-width="1.5"></path><path d="M1269.34 359.95L1269.34 359.95" stroke="#132e65" stroke-width="1.5"></path><path d="M1269.34 359.95L1281.28 509.61" stroke="#132e65" stroke-width="1.5"></path><path d="M1281.28 509.61L1281.28 509.61" stroke="#132e65" stroke-width="1.5"></path><path d="M1281.28 509.61L1430.04 507.02" stroke="#132e65" stroke-width="1.5"></path><path d="M1281.28 509.61L1130.05 543.35" stroke="#132e65" stroke-width="1.5"></path><path d="M1281.28 509.61L1276.03 681.16" stroke="#132e65" stroke-width="1.5"></path><path d="M1276.03 681.16L1276.03 681.16" stroke="#132e65" stroke-width="1.5"></path><path d="M1276.03 681.16L1450.02 668.03" stroke="#132e65" stroke-width="1.5"></path><path d="M1276.03 681.16L1130.05 543.35" stroke="#132e65" stroke-width="1.5"></path><path d="M1276.03 681.16L1430.04 507.02" stroke="#132e65" stroke-width="1.5"></path><path d="M1452.61 -79.37L1452.61 -79.37" stroke="#132e65" stroke-width="1.5"></path><path d="M1452.61 -79.37L1595.17 38.38" stroke="#132e65" stroke-width="1.5"></path><path d="M1452.61 -79.37L1421.12 111.83" stroke="#132e65" stroke-width="1.5"></path><path d="M1452.61 -79.37L1249.52 -64.53" stroke="#132e65" stroke-width="1.5"></path><path d="M1452.61 -79.37L1161.27 -96.09" stroke="#132e65" stroke-width="1.5"></path><path d="M1452.61 -79.37L1410.63 221.05" stroke="#132e65" stroke-width="1.5"></path><path d="M1452.61 -79.37L1581.64 211.79" stroke="#132e65" stroke-width="1.5"></path><path d="M1421.12 111.83L1421.12 111.83" stroke="#132e65" stroke-width="1.5"></path><path d="M1421.12 111.83L1410.63 221.05" stroke="#132e65" stroke-width="1.5"></path><path d="M1421.12 111.83L1298.37 232.9" stroke="#132e65" stroke-width="1.5"></path><path d="M1410.63 221.05L1410.63 221.05" stroke="#132e65" stroke-width="1.5"></path><path d="M1410.63 221.05L1450.03 339.73" stroke="#132e65" stroke-width="1.5"></path><path d="M1410.63 221.05L1581.64 211.79" stroke="#132e65" stroke-width="1.5"></path><path d="M1410.63 221.05L1557.19 340.42" stroke="#132e65" stroke-width="1.5"></path><path d="M1410.63 221.05L1269.34 359.95" stroke="#132e65" stroke-width="1.5"></path><path d="M1450.03 339.73L1450.03 339.73" stroke="#132e65" stroke-width="1.5"></path><path d="M1450.03 339.73L1557.19 340.42" stroke="#132e65" stroke-width="1.5"></path><path d="M1450.03 339.73L1430.04 507.02" stroke="#132e65" stroke-width="1.5"></path><path d="M1430.04 507.02L1430.04 507.02" stroke="#132e65" stroke-width="1.5"></path><path d="M1430.04 507.02L1450.02 668.03" stroke="#132e65" stroke-width="1.5"></path><path d="M1450.02 668.03L1450.02 668.03" stroke="#132e65" stroke-width="1.5"></path><path d="M1450.02 668.03L1604.07 640.41" stroke="#132e65" stroke-width="1.5"></path><path d="M1595.17 38.38L1595.17 38.38" stroke="#132e65" stroke-width="1.5"></path><path d="M1595.17 38.38L1581.64 211.79" stroke="#132e65" stroke-width="1.5"></path><path d="M1595.17 38.38L1421.12 111.83" stroke="#132e65" stroke-width="1.5"></path><path d="M1595.17 38.38L1410.63 221.05" stroke="#132e65" stroke-width="1.5"></path><path d="M1595.17 38.38L1557.19 340.42" stroke="#132e65" stroke-width="1.5"></path><path d="M1581.64 211.79L1581.64 211.79" stroke="#132e65" stroke-width="1.5"></path><path d="M1581.64 211.79L1557.19 340.42" stroke="#132e65" stroke-width="1.5"></path><path d="M1557.19 340.42L1557.19 340.42" stroke="#132e65" stroke-width="1.5"></path><path d="M1557.19 340.42L1430.04 507.02" stroke="#132e65" stroke-width="1.5"></path><path d="M1557.19 340.42L1421.12 111.83" stroke="#132e65" stroke-width="1.5"></path><path d="M1557.19 340.42L1298.37 232.9" stroke="#132e65" stroke-width="1.5"></path><path d="M1604.07 640.41L1604.07 640.41" stroke="#132e65" stroke-width="1.5"></path><path d="M1604.07 640.41L1430.04 507.02" stroke="#132e65" stroke-width="1.5"></path><path d="M1604.07 640.41L1557.19 340.42" stroke="#132e65" stroke-width="1.5"></path><path d="M1604.07 640.41L1276.03 681.16" stroke="#132e65" stroke-width="1.5"></path><circle r="5" cx="-47.11" cy="401.72" fill="#132e65"></circle><circle r="5" cx="-84.7" cy="513.07" fill="#132e65"></circle><circle r="5" cx="-98.94" cy="675.52" fill="#132e65"></circle><circle r="5" cx="68.64" cy="373.61" fill="#132e65"></circle><circle r="5" cx="85.51" cy="503.22" fill="#132e65"></circle><circle r="5" cx="97.22" cy="699.1" fill="#132e65"></circle><circle r="5" cx="194.55" cy="409.96" fill="#132e65"></circle><circle r="5" cx="204.6" cy="547.35" fill="#132e65"></circle><circle r="5" cx="387.12" cy="346.45" fill="#132e65"></circle><circle r="5" cx="373.44" cy="517.29" fill="#132e65"></circle><circle r="5" cx="370.63" cy="658.82" fill="#132e65"></circle><circle r="5" cx="489.71" cy="355.36" fill="#132e65"></circle><circle r="5" cx="541.32" cy="541.02" fill="#132e65"></circle><circle r="5" cx="498.28" cy="642.28" fill="#132e65"></circle><circle r="5" cx="701.21" cy="244.84" fill="#132e65"></circle><circle r="5" cx="688.82" cy="388.53" fill="#132e65"></circle><circle r="5" cx="691.55" cy="513.51" fill="#132e65"></circle><circle r="5" cx="834.09" cy="374.87" fill="#132e65"></circle><circle r="5" cx="852.43" cy="503.92" fill="#132e65"></circle><circle r="5" cx="804.03" cy="669.49" fill="#132e65"></circle><circle r="5" cx="958.5" cy="-87.22" fill="#132e65"></circle><circle r="5" cx="998.02" cy="99.03" fill="#132e65"></circle><circle r="5" cx="938.18" cy="206.18" fill="#132e65"></circle><circle r="5" cx="953.99" cy="367.16" fill="#132e65"></circle><circle r="5" cx="1004.31" cy="539.9" fill="#132e65"></circle><circle r="5" cx="943.71" cy="661.03" fill="#132e65"></circle><circle r="5" cx="1161.27" cy="-96.09" fill="#132e65"></circle><circle r="5" cx="1142.2" cy="221.46" fill="#132e65"></circle><circle r="5" cx="1148.2" cy="400.53" fill="#132e65"></circle><circle r="5" cx="1130.05" cy="543.35" fill="#132e65"></circle><circle r="5" cx="1120.06" cy="684.31" fill="#132e65"></circle><circle r="5" cx="1249.52" cy="-64.53" fill="#132e65"></circle><circle r="5" cx="1298.37" cy="232.9" fill="#132e65"></circle><circle r="5" cx="1269.34" cy="359.95" fill="#132e65"></circle><circle r="5" cx="1281.28" cy="509.61" fill="#132e65"></circle><circle r="5" cx="1276.03" cy="681.16" fill="#132e65"></circle><circle r="5" cx="1452.61" cy="-79.37" fill="#132e65"></circle><circle r="5" cx="1421.12" cy="111.83" fill="#132e65"></circle><circle r="5" cx="1410.63" cy="221.05" fill="#132e65"></circle><circle r="5" cx="1450.03" cy="339.73" fill="#132e65"></circle><circle r="5" cx="1430.04" cy="507.02" fill="#132e65"></circle><circle r="5" cx="1450.02" cy="668.03" fill="#132e65"></circle><circle r="5" cx="1595.17" cy="38.38" fill="#132e65"></circle><circle r="5" cx="1581.64" cy="211.79" fill="#132e65"></circle><circle r="5" cx="1557.19" cy="340.42" fill="#132e65"></circle><circle r="5" cx="1604.07" cy="640.41" fill="#132e65"></circle><path d="M690.52 363.97L690.52 363.97" stroke="hsl(228.39999999999998, 85.8%, 32.4%)" stroke-width="1.5"></path><path d="M690.52 363.97L792.04 350.71" stroke="hsl(228.39999999999998, 85.8%, 32.4%)" stroke-width="1.5"></path><path d="M690.52 363.97L700.86 510.46" stroke="hsl(228.39999999999998, 85.8%, 32.4%)" stroke-width="1.5"></path><path d="M670.47 685.32L670.47 685.32" stroke="hsl(228.39999999999998, 85.8%, 32.4%)" stroke-width="1.5"></path><path d="M670.47 685.32L803.69 643.05" stroke="hsl(228.39999999999998, 85.8%, 32.4%)" stroke-width="1.5"></path><path d="M670.47 685.32L700.86 510.46" stroke="hsl(228.39999999999998, 85.8%, 32.4%)" stroke-width="1.5"></path><path d="M670.47 685.32L542.35 548.26" stroke="hsl(228.39999999999998, 85.8%, 32.4%)" stroke-width="1.5"></path><path d="M670.47 685.32L816.5 529.4" stroke="hsl(228.39999999999998, 85.8%, 32.4%)" stroke-width="1.5"></path><path d="M670.47 685.32L408.54 667.86" stroke="hsl(228.39999999999998, 85.8%, 32.4%)" stroke-width="1.5"></path><path d="M670.47 685.32L965.66 694.18" stroke="hsl(228.39999999999998, 85.8%, 32.4%)" stroke-width="1.5"></path><path d="M1271.45 648.17L1271.45 648.17" stroke="hsl(228.39999999999998, 85.8%, 32.4%)" stroke-width="1.5"></path><path d="M1271.45 648.17L1138.35 659.39" stroke="hsl(228.39999999999998, 85.8%, 32.4%)" stroke-width="1.5"></path><path d="M1271.45 648.17L1240.69 513.08" stroke="hsl(228.39999999999998, 85.8%, 32.4%)" stroke-width="1.5"></path><path d="M1271.45 648.17L1446.39 707.89" stroke="hsl(228.39999999999998, 85.8%, 32.4%)" stroke-width="1.5"></path><path d="M1271.45 648.17L1437.96 539.91" stroke="hsl(228.39999999999998, 85.8%, 32.4%)" stroke-width="1.5"></path><path d="M1271.45 648.17L1298.02 375.3" stroke="hsl(228.39999999999998, 85.8%, 32.4%)" stroke-width="1.5"></path><path d="M1271.45 648.17L987.13 553.11" stroke="hsl(228.39999999999998, 85.8%, 32.4%)" stroke-width="1.5"></path><path d="M1434.22 108.24L1434.22 108.24" stroke="hsl(228.39999999999998, 85.8%, 32.4%)" stroke-width="1.5"></path><path d="M1434.22 108.24L1395.74 220.78" stroke="hsl(228.39999999999998, 85.8%, 32.4%)" stroke-width="1.5"></path><path d="M1434.22 108.24L1300.04 66.3" stroke="hsl(228.39999999999998, 85.8%, 32.4%)" stroke-width="1.5"></path><path d="M1434.22 108.24L1550.86 211.07" stroke="hsl(228.39999999999998, 85.8%, 32.4%)" stroke-width="1.5"></path><path d="M1434.22 108.24L1590.99 89.87" stroke="hsl(228.39999999999998, 85.8%, 32.4%)" stroke-width="1.5"></path><path d="M1434.22 108.24L1298.39 218.77" stroke="hsl(228.39999999999998, 85.8%, 32.4%)" stroke-width="1.5"></path><path d="M1395.74 220.78L1395.74 220.78" stroke="hsl(228.39999999999998, 85.8%, 32.4%)" stroke-width="1.5"></path><path d="M1395.74 220.78L1298.39 218.77" stroke="hsl(228.39999999999998, 85.8%, 32.4%)" stroke-width="1.5"></path><path d="M1457.88 376.03L1457.88 376.03" stroke="hsl(228.39999999999998, 85.8%, 32.4%)" stroke-width="1.5"></path><path d="M1457.88 376.03L1581.98 388.88" stroke="hsl(228.39999999999998, 85.8%, 32.4%)" stroke-width="1.5"></path><path d="M1457.88 376.03L1298.02 375.3" stroke="hsl(228.39999999999998, 85.8%, 32.4%)" stroke-width="1.5"></path><path d="M1457.88 376.03L1437.96 539.91" stroke="hsl(228.39999999999998, 85.8%, 32.4%)" stroke-width="1.5"></path><path d="M1457.88 376.03L1395.74 220.78" stroke="hsl(228.39999999999998, 85.8%, 32.4%)" stroke-width="1.5"></path><path d="M1437.96 539.91L1437.96 539.91" stroke="hsl(228.39999999999998, 85.8%, 32.4%)" stroke-width="1.5"></path><path d="M1437.96 539.91L1575.28 502.36" stroke="hsl(228.39999999999998, 85.8%, 32.4%)" stroke-width="1.5"></path><path d="M1437.96 539.91L1446.39 707.89" stroke="hsl(228.39999999999998, 85.8%, 32.4%)" stroke-width="1.5"></path><path d="M1446.39 707.89L1446.39 707.89" stroke="hsl(228.39999999999998, 85.8%, 32.4%)" stroke-width="1.5"></path><path d="M1446.39 707.89L1580.12 683.88" stroke="hsl(228.39999999999998, 85.8%, 32.4%)" stroke-width="1.5"></path><path d="M1446.39 707.89L1575.28 502.36" stroke="hsl(228.39999999999998, 85.8%, 32.4%)" stroke-width="1.5"></path><path d="M1446.39 707.89L1240.69 513.08" stroke="hsl(228.39999999999998, 85.8%, 32.4%)" stroke-width="1.5"></path><path d="M-102.53 495.95L-102.53 495.95" stroke="hsl(228.39999999999998, 85.8%, 32.4%)" stroke-width="1.5"></path><path d="M-102.53 495.95L65.39 533.35" stroke="hsl(228.39999999999998, 85.8%, 32.4%)" stroke-width="1.5"></path><path d="M-102.53 495.95L-59.94 682.21" stroke="hsl(228.39999999999998, 85.8%, 32.4%)" stroke-width="1.5"></path><path d="M-102.53 495.95L68.88 691.56" stroke="hsl(228.39999999999998, 85.8%, 32.4%)" stroke-width="1.5"></path><path d="M-102.53 495.95L194.09 515.76" stroke="hsl(228.39999999999998, 85.8%, 32.4%)" stroke-width="1.5"></path><path d="M-102.53 495.95L200.15 708.28" stroke="hsl(228.39999999999998, 85.8%, 32.4%)" stroke-width="1.5"></path><path d="M-59.94 682.21L-59.94 682.21" stroke="hsl(228.39999999999998, 85.8%, 32.4%)" stroke-width="1.5"></path><path d="M-59.94 682.21L68.88 691.56" stroke="hsl(228.39999999999998, 85.8%, 32.4%)" stroke-width="1.5"></path><path d="M65.39 533.35L65.39 533.35" stroke="hsl(228.39999999999998, 85.8%, 32.4%)" stroke-width="1.5"></path><path d="M65.39 533.35L194.09 515.76" stroke="hsl(228.39999999999998, 85.8%, 32.4%)" stroke-width="1.5"></path><path d="M65.39 533.35L68.88 691.56" stroke="hsl(228.39999999999998, 85.8%, 32.4%)" stroke-width="1.5"></path><path d="M65.39 533.35L-59.94 682.21" stroke="hsl(228.39999999999998, 85.8%, 32.4%)" stroke-width="1.5"></path><path d="M68.88 691.56L68.88 691.56" stroke="hsl(228.39999999999998, 85.8%, 32.4%)" stroke-width="1.5"></path><path d="M68.88 691.56L200.15 708.28" stroke="hsl(228.39999999999998, 85.8%, 32.4%)" stroke-width="1.5"></path><path d="M194.09 515.76L194.09 515.76" stroke="hsl(228.39999999999998, 85.8%, 32.4%)" stroke-width="1.5"></path><path d="M194.09 515.76L342.47 523.95" stroke="hsl(228.39999999999998, 85.8%, 32.4%)" stroke-width="1.5"></path><path d="M194.09 515.76L200.15 708.28" stroke="hsl(228.39999999999998, 85.8%, 32.4%)" stroke-width="1.5"></path><path d="M194.09 515.76L68.88 691.56" stroke="hsl(228.39999999999998, 85.8%, 32.4%)" stroke-width="1.5"></path><path d="M194.09 515.76L408.54 667.86" stroke="hsl(228.39999999999998, 85.8%, 32.4%)" stroke-width="1.5"></path><path d="M200.15 708.28L200.15 708.28" stroke="hsl(228.39999999999998, 85.8%, 32.4%)" stroke-width="1.5"></path><path d="M200.15 708.28L408.54 667.86" stroke="hsl(228.39999999999998, 85.8%, 32.4%)" stroke-width="1.5"></path><path d="M200.15 708.28L65.39 533.35" stroke="hsl(228.39999999999998, 85.8%, 32.4%)" stroke-width="1.5"></path><path d="M200.15 708.28L342.47 523.95" stroke="hsl(228.39999999999998, 85.8%, 32.4%)" stroke-width="1.5"></path><path d="M200.15 708.28L-59.94 682.21" stroke="hsl(228.39999999999998, 85.8%, 32.4%)" stroke-width="1.5"></path><path d="M342.47 523.95L342.47 523.95" stroke="hsl(228.39999999999998, 85.8%, 32.4%)" stroke-width="1.5"></path><path d="M342.47 523.95L408.54 667.86" stroke="hsl(228.39999999999998, 85.8%, 32.4%)" stroke-width="1.5"></path><path d="M342.47 523.95L542.35 548.26" stroke="hsl(228.39999999999998, 85.8%, 32.4%)" stroke-width="1.5"></path><path d="M342.47 523.95L65.39 533.35" stroke="hsl(228.39999999999998, 85.8%, 32.4%)" stroke-width="1.5"></path><path d="M342.47 523.95L68.88 691.56" stroke="hsl(228.39999999999998, 85.8%, 32.4%)" stroke-width="1.5"></path><path d="M408.54 667.86L408.54 667.86" stroke="hsl(228.39999999999998, 85.8%, 32.4%)" stroke-width="1.5"></path><path d="M408.54 667.86L542.35 548.26" stroke="hsl(228.39999999999998, 85.8%, 32.4%)" stroke-width="1.5"></path><path d="M542.35 548.26L542.35 548.26" stroke="hsl(228.39999999999998, 85.8%, 32.4%)" stroke-width="1.5"></path><path d="M542.35 548.26L700.86 510.46" stroke="hsl(228.39999999999998, 85.8%, 32.4%)" stroke-width="1.5"></path><path d="M542.35 548.26L690.52 363.97" stroke="hsl(228.39999999999998, 85.8%, 32.4%)" stroke-width="1.5"></path><path d="M542.35 548.26L816.5 529.4" stroke="hsl(228.39999999999998, 85.8%, 32.4%)" stroke-width="1.5"></path><path d="M700.86 510.46L700.86 510.46" stroke="hsl(228.39999999999998, 85.8%, 32.4%)" stroke-width="1.5"></path><path d="M700.86 510.46L816.5 529.4" stroke="hsl(228.39999999999998, 85.8%, 32.4%)" stroke-width="1.5"></path><path d="M700.86 510.46L803.69 643.05" stroke="hsl(228.39999999999998, 85.8%, 32.4%)" stroke-width="1.5"></path><path d="M700.86 510.46L792.04 350.71" stroke="hsl(228.39999999999998, 85.8%, 32.4%)" stroke-width="1.5"></path><path d="M792.04 350.71L792.04 350.71" stroke="hsl(228.39999999999998, 85.8%, 32.4%)" stroke-width="1.5"></path><path d="M792.04 350.71L816.5 529.4" stroke="hsl(228.39999999999998, 85.8%, 32.4%)" stroke-width="1.5"></path><path d="M792.04 350.71L1005.05 374.62" stroke="hsl(228.39999999999998, 85.8%, 32.4%)" stroke-width="1.5"></path><path d="M792.04 350.71L987.13 553.11" stroke="hsl(228.39999999999998, 85.8%, 32.4%)" stroke-width="1.5"></path><path d="M792.04 350.71L803.69 643.05" stroke="hsl(228.39999999999998, 85.8%, 32.4%)" stroke-width="1.5"></path><path d="M816.5 529.4L816.5 529.4" stroke="hsl(228.39999999999998, 85.8%, 32.4%)" stroke-width="1.5"></path><path d="M816.5 529.4L803.69 643.05" stroke="hsl(228.39999999999998, 85.8%, 32.4%)" stroke-width="1.5"></path><path d="M816.5 529.4L987.13 553.11" stroke="hsl(228.39999999999998, 85.8%, 32.4%)" stroke-width="1.5"></path><path d="M803.69 643.05L803.69 643.05" stroke="hsl(228.39999999999998, 85.8%, 32.4%)" stroke-width="1.5"></path><path d="M803.69 643.05L965.66 694.18" stroke="hsl(228.39999999999998, 85.8%, 32.4%)" stroke-width="1.5"></path><path d="M1005.05 374.62L1005.05 374.62" stroke="hsl(228.39999999999998, 85.8%, 32.4%)" stroke-width="1.5"></path><path d="M1005.05 374.62L1146.91 365.41" stroke="hsl(228.39999999999998, 85.8%, 32.4%)" stroke-width="1.5"></path><path d="M1005.05 374.62L987.13 553.11" stroke="hsl(228.39999999999998, 85.8%, 32.4%)" stroke-width="1.5"></path><path d="M1005.05 374.62L1116.22 211.52" stroke="hsl(228.39999999999998, 85.8%, 32.4%)" stroke-width="1.5"></path><path d="M987.13 553.11L987.13 553.11" stroke="hsl(228.39999999999998, 85.8%, 32.4%)" stroke-width="1.5"></path><path d="M987.13 553.11L965.66 694.18" stroke="hsl(228.39999999999998, 85.8%, 32.4%)" stroke-width="1.5"></path><path d="M987.13 553.11L1138.35 659.39" stroke="hsl(228.39999999999998, 85.8%, 32.4%)" stroke-width="1.5"></path><path d="M987.13 553.11L803.69 643.05" stroke="hsl(228.39999999999998, 85.8%, 32.4%)" stroke-width="1.5"></path><path d="M987.13 553.11L1146.91 365.41" stroke="hsl(228.39999999999998, 85.8%, 32.4%)" stroke-width="1.5"></path><path d="M965.66 694.18L965.66 694.18" stroke="hsl(228.39999999999998, 85.8%, 32.4%)" stroke-width="1.5"></path><path d="M1116.22 211.52L1116.22 211.52" stroke="hsl(228.39999999999998, 85.8%, 32.4%)" stroke-width="1.5"></path><path d="M1116.22 211.52L1146.91 365.41" stroke="hsl(228.39999999999998, 85.8%, 32.4%)" stroke-width="1.5"></path><path d="M1116.22 211.52L1298.39 218.77" stroke="hsl(228.39999999999998, 85.8%, 32.4%)" stroke-width="1.5"></path><path d="M1116.22 211.52L1300.04 66.3" stroke="hsl(228.39999999999998, 85.8%, 32.4%)" stroke-width="1.5"></path><path d="M1116.22 211.52L1298.02 375.3" stroke="hsl(228.39999999999998, 85.8%, 32.4%)" stroke-width="1.5"></path><path d="M1116.22 211.52L1395.74 220.78" stroke="hsl(228.39999999999998, 85.8%, 32.4%)" stroke-width="1.5"></path><path d="M1146.91 365.41L1146.91 365.41" stroke="hsl(228.39999999999998, 85.8%, 32.4%)" stroke-width="1.5"></path><path d="M1146.91 365.41L1298.02 375.3" stroke="hsl(228.39999999999998, 85.8%, 32.4%)" stroke-width="1.5"></path><path d="M1138.35 659.39L1138.35 659.39" stroke="hsl(228.39999999999998, 85.8%, 32.4%)" stroke-width="1.5"></path><path d="M1138.35 659.39L965.66 694.18" stroke="hsl(228.39999999999998, 85.8%, 32.4%)" stroke-width="1.5"></path><path d="M1138.35 659.39L1240.69 513.08" stroke="hsl(228.39999999999998, 85.8%, 32.4%)" stroke-width="1.5"></path><path d="M1138.35 659.39L1146.91 365.41" stroke="hsl(228.39999999999998, 85.8%, 32.4%)" stroke-width="1.5"></path><path d="M1300.04 66.3L1300.04 66.3" stroke="hsl(228.39999999999998, 85.8%, 32.4%)" stroke-width="1.5"></path><path d="M1300.04 66.3L1298.39 218.77" stroke="hsl(228.39999999999998, 85.8%, 32.4%)" stroke-width="1.5"></path><path d="M1298.39 218.77L1298.39 218.77" stroke="hsl(228.39999999999998, 85.8%, 32.4%)" stroke-width="1.5"></path><path d="M1298.39 218.77L1298.02 375.3" stroke="hsl(228.39999999999998, 85.8%, 32.4%)" stroke-width="1.5"></path><path d="M1298.39 218.77L1146.91 365.41" stroke="hsl(228.39999999999998, 85.8%, 32.4%)" stroke-width="1.5"></path><path d="M1298.02 375.3L1298.02 375.3" stroke="hsl(228.39999999999998, 85.8%, 32.4%)" stroke-width="1.5"></path><path d="M1298.02 375.3L1240.69 513.08" stroke="hsl(228.39999999999998, 85.8%, 32.4%)" stroke-width="1.5"></path><path d="M1240.69 513.08L1240.69 513.08" stroke="hsl(228.39999999999998, 85.8%, 32.4%)" stroke-width="1.5"></path><path d="M1240.69 513.08L1146.91 365.41" stroke="hsl(228.39999999999998, 85.8%, 32.4%)" stroke-width="1.5"></path><path d="M1240.69 513.08L1437.96 539.91" stroke="hsl(228.39999999999998, 85.8%, 32.4%)" stroke-width="1.5"></path><path d="M1240.69 513.08L987.13 553.11" stroke="hsl(228.39999999999998, 85.8%, 32.4%)" stroke-width="1.5"></path><path d="M1420.95 -112.5L1420.95 -112.5" stroke="hsl(228.39999999999998, 85.8%, 32.4%)" stroke-width="1.5"></path><path d="M1420.95 -112.5L1541.62 -105.37" stroke="hsl(228.39999999999998, 85.8%, 32.4%)" stroke-width="1.5"></path><path d="M1420.95 -112.5L1300.04 66.3" stroke="hsl(228.39999999999998, 85.8%, 32.4%)" stroke-width="1.5"></path><path d="M1420.95 -112.5L1434.22 108.24" stroke="hsl(228.39999999999998, 85.8%, 32.4%)" stroke-width="1.5"></path><path d="M1420.95 -112.5L1590.99 89.87" stroke="hsl(228.39999999999998, 85.8%, 32.4%)" stroke-width="1.5"></path><path d="M1420.95 -112.5L1395.74 220.78" stroke="hsl(228.39999999999998, 85.8%, 32.4%)" stroke-width="1.5"></path><path d="M1541.62 -105.37L1541.62 -105.37" stroke="hsl(228.39999999999998, 85.8%, 32.4%)" stroke-width="1.5"></path><path d="M1541.62 -105.37L1590.99 89.87" stroke="hsl(228.39999999999998, 85.8%, 32.4%)" stroke-width="1.5"></path><path d="M1541.62 -105.37L1434.22 108.24" stroke="hsl(228.39999999999998, 85.8%, 32.4%)" stroke-width="1.5"></path><path d="M1541.62 -105.37L1300.04 66.3" stroke="hsl(228.39999999999998, 85.8%, 32.4%)" stroke-width="1.5"></path><path d="M1541.62 -105.37L1550.86 211.07" stroke="hsl(228.39999999999998, 85.8%, 32.4%)" stroke-width="1.5"></path><path d="M1590.99 89.87L1590.99 89.87" stroke="hsl(228.39999999999998, 85.8%, 32.4%)" stroke-width="1.5"></path><path d="M1590.99 89.87L1550.86 211.07" stroke="hsl(228.39999999999998, 85.8%, 32.4%)" stroke-width="1.5"></path><path d="M1550.86 211.07L1550.86 211.07" stroke="hsl(228.39999999999998, 85.8%, 32.4%)" stroke-width="1.5"></path><path d="M1550.86 211.07L1395.74 220.78" stroke="hsl(228.39999999999998, 85.8%, 32.4%)" stroke-width="1.5"></path><path d="M1550.86 211.07L1581.98 388.88" stroke="hsl(228.39999999999998, 85.8%, 32.4%)" stroke-width="1.5"></path><path d="M1581.98 388.88L1581.98 388.88" stroke="hsl(228.39999999999998, 85.8%, 32.4%)" stroke-width="1.5"></path><path d="M1581.98 388.88L1575.28 502.36" stroke="hsl(228.39999999999998, 85.8%, 32.4%)" stroke-width="1.5"></path><path d="M1575.28 502.36L1575.28 502.36" stroke="hsl(228.39999999999998, 85.8%, 32.4%)" stroke-width="1.5"></path><path d="M1575.28 502.36L1457.88 376.03" stroke="hsl(228.39999999999998, 85.8%, 32.4%)" stroke-width="1.5"></path><path d="M1580.12 683.88L1580.12 683.88" stroke="hsl(228.39999999999998, 85.8%, 32.4%)" stroke-width="1.5"></path><path d="M1580.12 683.88L1575.28 502.36" stroke="hsl(228.39999999999998, 85.8%, 32.4%)" stroke-width="1.5"></path><circle r="25" cx="690.52" cy="363.97" fill="url(#SvgjsRadialGradient1024)"></circle><circle r="25" cx="670.47" cy="685.32" fill="url(#SvgjsRadialGradient1024)"></circle><circle r="25" cx="1271.45" cy="648.17" fill="url(#SvgjsRadialGradient1024)"></circle><circle r="25" cx="1434.22" cy="108.24" fill="url(#SvgjsRadialGradient1024)"></circle><circle r="25" cx="1395.74" cy="220.78" fill="url(#SvgjsRadialGradient1024)"></circle><circle r="25" cx="1457.88" cy="376.03" fill="url(#SvgjsRadialGradient1024)"></circle><circle r="25" cx="1437.96" cy="539.91" fill="url(#SvgjsRadialGradient1024)"></circle><circle r="25" cx="1446.39" cy="707.89" fill="url(#SvgjsRadialGradient1024)"></circle><circle r="5" cx="-102.53" cy="495.95" fill="#848fbb"></circle><circle r="5" cx="-59.94" cy="682.21" fill="#848fbb"></circle><circle r="5" cx="65.39" cy="533.35" fill="#848fbb"></circle><circle r="5" cx="68.88" cy="691.56" fill="#848fbb"></circle><circle r="5" cx="194.09" cy="515.76" fill="#848fbb"></circle><circle r="5" cx="200.15" cy="708.28" fill="#848fbb"></circle><circle r="5" cx="342.47" cy="523.95" fill="#848fbb"></circle><circle r="5" cx="408.54" cy="667.86" fill="#848fbb"></circle><circle r="5" cx="542.35" cy="548.26" fill="#848fbb"></circle><circle r="5" cx="700.86" cy="510.46" fill="#848fbb"></circle><circle r="5" cx="792.04" cy="350.71" fill="#848fbb"></circle><circle r="5" cx="816.5" cy="529.4" fill="#848fbb"></circle><circle r="5" cx="803.69" cy="643.05" fill="#848fbb"></circle><circle r="5" cx="1005.05" cy="374.62" fill="#848fbb"></circle><circle r="5" cx="987.13" cy="553.11" fill="#848fbb"></circle><circle r="5" cx="965.66" cy="694.18" fill="#848fbb"></circle><circle r="5" cx="1116.22" cy="211.52" fill="#848fbb"></circle><circle r="5" cx="1146.91" cy="365.41" fill="#848fbb"></circle><circle r="5" cx="1138.35" cy="659.39" fill="#848fbb"></circle><circle r="5" cx="1300.04" cy="66.3" fill="#848fbb"></circle><circle r="5" cx="1298.39" cy="218.77" fill="#848fbb"></circle><circle r="5" cx="1298.02" cy="375.3" fill="#848fbb"></circle><circle r="5" cx="1240.69" cy="513.08" fill="#848fbb"></circle><circle r="5" cx="1420.95" cy="-112.5" fill="#848fbb"></circle><circle r="5" cx="1541.62" cy="-105.37" fill="#848fbb"></circle><circle r="5" cx="1590.99" cy="89.87" fill="#848fbb"></circle><circle r="5" cx="1550.86" cy="211.07" fill="#848fbb"></circle><circle r="5" cx="1581.98" cy="388.88" fill="#848fbb"></circle><circle r="5" cx="1575.28" cy="502.36" fill="#848fbb"></circle><circle r="5" cx="1580.12" cy="683.88" fill="#848fbb"></circle></g><defs><mask id="SvgjsMask1023"><rect width="1440" height="560" fill="#ffffff"></rect></mask><radialGradient id="SvgjsRadialGradient1024"><stop stop-color="#ffffff" offset="0.1"></stop><stop stop-color="rgba(9, 30, 118, 1)" offset="0.2"></stop><stop stop-color="rgba(9, 30, 118, 0)" offset="1"></stop></radialGradient></defs></svg>